<svg width="75" height="75" viewBox="0 0 75 75" fill="none" xmlns="http://www.w3.org/2000/svg">
<g clip-path="url(#clip0_79_47)">
<path d="M66.6667 0H8.33333C3.72917 0 0 3.72917 0 8.33333V66.6667C0 71.2708 3.72917 75 8.33333 75H40.0875V45.9958H30.325V34.6417H40.0875V26.2875C40.0875 16.6042 46.0083 11.325 54.65 11.325C57.5625 11.3167 60.4708 11.4667 63.3667 11.7625V21.8875H57.4167C52.7083 21.8875 51.7917 24.1125 51.7917 27.3958V34.625H63.0417L61.5792 45.9792H51.725V75H66.6667C71.2708 75 75 71.2708 75 66.6667V8.33333C75 3.72917 71.2708 0 66.6667 0Z" fill="#8B2CF5"/>
</g>
<defs>
<clipPath id="clip0_79_47">
<rect width="75" height="75" fill="white"/>
</clipPath>
</defs>
</svg>
