<svg width="75" height="75" viewBox="0 0 75 75" fill="none" xmlns="http://www.w3.org/2000/svg">
<g clip-path="url(#clip0_79_43)">
<path d="M20.8333 0C9.32917 0 0 9.32917 0 20.8333V54.1667C0 65.6708 9.32917 75 20.8333 75H54.1667C65.6708 75 75 65.6708 75 54.1667V20.8333C75 9.32917 65.6708 0 54.1667 0H20.8333ZM62.5 8.33333C64.8 8.33333 66.6667 10.2 66.6667 12.5C66.6667 14.8 64.8 16.6667 62.5 16.6667C60.2 16.6667 58.3333 14.8 58.3333 12.5C58.3333 10.2 60.2 8.33333 62.5 8.33333ZM37.5 16.6667C49.0042 16.6667 58.3333 25.9958 58.3333 37.5C58.3333 49.0042 49.0042 58.3333 37.5 58.3333C25.9958 58.3333 16.6667 49.0042 16.6667 37.5C16.6667 25.9958 25.9958 16.6667 37.5 16.6667ZM37.5 25C34.1848 25 31.0054 26.317 28.6612 28.6612C26.317 31.0054 25 34.1848 25 37.5C25 40.8152 26.317 43.9946 28.6612 46.3388C31.0054 48.683 34.1848 50 37.5 50C40.8152 50 43.9946 48.683 46.3388 46.3388C48.683 43.9946 50 40.8152 50 37.5C50 34.1848 48.683 31.0054 46.3388 28.6612C43.9946 26.317 40.8152 25 37.5 25Z" fill="#8B2CF5"/>
</g>
<defs>
<clipPath id="clip0_79_43">
<rect width="75" height="75" fill="white"/>
</clipPath>
</defs>
</svg>
