<svg width="75" height="75" viewBox="0 0 75 75" fill="none" xmlns="http://www.w3.org/2000/svg">
<g clip-path="url(#clip0_79_45)">
<path d="M68.6294 0.00682197C67.5456 0.0591468 66.5511 0.405107 65.6774 0.787323C64.8702 1.14015 61.9716 2.49235 57.356 4.64105C52.7404 6.78975 46.6244 9.63867 40.1052 12.6818C27.067 18.7682 12.4153 25.6146 4.90786 29.1212C4.65004 29.2404 3.60301 29.5961 2.4466 30.5765C1.28751 31.5591 0 33.6915 0 36.0237C0 37.905 0.84616 39.8211 1.86792 40.9181C2.88967 42.0151 3.92519 42.528 4.79065 42.91V42.9019C7.71613 44.1955 16.4526 48.0756 18.5326 48.9995C19.2705 51.4536 22.4379 61.9595 23.1914 64.6014H23.1841C23.7167 66.4714 24.2359 67.69 24.9568 68.7072C25.3173 69.2158 25.7476 69.6767 26.2753 70.0406C26.4778 70.1802 26.7021 70.2885 26.9273 70.3902C26.9587 70.405 26.991 70.4086 27.0225 70.4227L26.9346 70.3983C26.9999 70.4274 27.0585 70.4704 27.1251 70.4959C27.2335 70.5373 27.3087 70.5359 27.4547 70.569C27.9685 70.7445 28.4814 70.8617 28.9563 70.8617C30.9951 70.8617 32.2453 69.6341 32.2453 69.6341L32.3259 69.569L41.1308 61.3006L51.9134 72.3739C52.1103 72.6826 53.6532 75 57.2241 75C59.3549 75 61.0395 73.8294 62.1173 72.6016C63.1952 71.3738 63.8666 70.1174 64.1684 68.4145L64.1757 68.4064C64.4164 67.032 74.7386 9.50292 74.7386 9.50292L74.7166 9.60049C75.0379 8.00891 75.1327 6.46974 74.7532 4.90122C74.3737 3.33269 73.3495 1.80198 72.1162 0.998709C70.8828 0.195443 69.7132 -0.0455045 68.6294 0.00682197ZM67.1497 9.1208C66.7418 11.3937 57.4953 62.9527 56.9238 66.1868L41.3505 50.1947L30.8243 60.0729L33.7397 47.4223C33.7397 47.4223 53.8518 24.8267 55.0632 23.5113C56.0383 22.4581 56.2426 22.089 56.2426 21.7226C56.2426 21.2356 56.0167 20.8852 55.4954 20.8852C55.0266 20.8852 54.3899 21.3838 54.0523 21.617C49.7631 24.585 31.4942 36.1401 22.5102 41.8124C21.9695 41.5718 13.8524 37.9541 9.47875 36.0156C17.2582 32.3816 30.5936 26.1544 43.0133 20.3568C49.5313 17.3141 55.6456 14.4626 60.2567 12.316C64.1492 10.5039 66.1796 9.56569 67.1497 9.1208ZM56.8139 66.7803H56.8212L56.8139 66.8047C56.8187 66.7778 56.8103 66.8014 56.8139 66.7803Z" fill="#8B2CF5"/>
</g>
<defs>
<clipPath id="clip0_79_45">
<rect width="75" height="75" fill="white"/>
</clipPath>
</defs>
</svg>
