<svg width="40" height="30" viewBox="0 0 40 30" fill="none" xmlns="http://www.w3.org/2000/svg">
<path d="M7.86667 3.33333C8 4.81667 8.33333 6.26667 8.86667 7.65L6.2 9.65C5.28889 7.65 4.71111 5.53333 4.51111 3.33333H7.86667ZM29.7778 23.3667C31.6667 23.7667 33.6 24.0167 35.5556 24.1167V26.6C32.6222 26.45 29.8 26.0167 27.1111 25.35L29.7778 23.3667ZM10 0H2.22222C1 0 0 0.75 0 1.66667C0 17.3167 16.9111 30 37.7778 30C39 30 40 29.25 40 28.3333V22.5167C40 21.6 39 20.85 37.7778 20.85C35.0222 20.85 32.3333 20.5167 29.8444 19.9C29.6222 19.8333 29.3778 19.8167 29.1556 19.8167C28.5778 19.8167 28.0222 19.9833 27.5778 20.3L22.6889 23.9667C16.4 21.55 11.2444 17.7 8.04445 12.9833L12.9333 9.31667C13.5556 8.85 13.7333 8.2 13.4889 7.61667C12.6667 5.75 12.2222 3.75 12.2222 1.66667C12.2222 0.75 11.2222 0 10 0Z" fill="#8B2CF5"/>
</svg>
